<svg xmlns="http://www.w3.org/2000/svg" width="34.491" height="50.17" viewBox="0 0 34.491 50.17">
  <path id="Icon_awesome-lightbulb" data-name="Icon awesome-lightbulb" d="M9.412,44.52a3.137,3.137,0,0,0,.525,1.733l1.675,2.517a3.135,3.135,0,0,0,2.61,1.4h6.047a3.135,3.135,0,0,0,2.61-1.4l1.675-2.517a3.134,3.134,0,0,0,.525-1.733l0-3.758H9.408l0,3.758ZM0,17.245A17.149,17.149,0,0,0,4.268,28.59a28.159,28.159,0,0,1,5.116,8.961c0,.025.007.051.011.076H25.1c0-.025.007-.05.011-.076a28.159,28.159,0,0,1,5.116-8.961A17.242,17.242,0,1,0,0,17.245ZM17.245,9.407a7.848,7.848,0,0,0-7.839,7.839,1.568,1.568,0,1,1-3.136,0A10.986,10.986,0,0,1,17.245,6.271a1.568,1.568,0,1,1,0,3.136Z" fill="#fff"/>
</svg>
