<svg width="154" height="43" viewBox="0 0 154 43" fill="none" xmlns="http://www.w3.org/2000/svg">
<path d="M62.0029 6.5791H61.0029V34.5791H62.0029V6.5791Z" fill="#11417F"/>
<path d="M53.178 15.3701C54.0959 15.895 54.8588 16.6532 55.3894 17.5679C55.92 18.4825 56.1995 19.5212 56.1995 20.5786C56.1995 21.636 55.92 22.6747 55.3894 23.5893C54.8588 24.504 54.0959 25.2622 53.178 25.7871L27.978 40.1951C27.0655 40.7168 26.032 40.9896 24.9809 40.9863C23.9298 40.9829 22.8981 40.7035 21.9889 40.1761C21.0798 39.6486 20.3251 38.8915 19.8006 37.9807C19.276 37.0698 18.9999 36.0372 19 34.9861V6.17111C18.9999 5.12002 19.276 4.08736 19.8006 3.17653C20.3251 2.26569 21.0798 1.50864 21.9889 0.981153C22.8981 0.45367 23.9298 0.174271 24.9809 0.170929C26.032 0.167586 27.0655 0.440417 27.978 0.962106L53.178 15.3701Z" fill="#11417F"/>
<path d="M34.178 15.3701C35.0959 15.895 35.8588 16.6532 36.3894 17.5679C36.92 18.4825 37.1995 19.5212 37.1995 20.5786C37.1995 21.636 36.92 22.6747 36.3894 23.5893C35.8588 24.504 35.0959 25.2622 34.178 25.7871L8.97797 40.1951C8.06549 40.7168 7.03197 40.9896 5.98089 40.9863C4.92981 40.9829 3.89805 40.7035 2.98891 40.1761C2.07976 39.6486 1.32513 38.8915 0.800575 37.9807C0.27602 37.0698 -6.10352e-05 36.0372 -2.28882e-05 34.9861V6.17111C-6.10352e-05 5.12002 0.27602 4.08736 0.800575 3.17653C1.32513 2.26569 2.07976 1.50864 2.98891 0.981153C3.89805 0.45367 4.92981 0.174271 5.98089 0.170929C7.03197 0.167586 8.06549 0.440417 8.97797 0.962106L34.178 15.3701Z" fill="#27BDF3"/>
<path d="M75.587 22.9291C74.152 22.9291 73.137 24.1191 73.137 25.7291C73.137 27.3391 74.152 28.5291 75.587 28.5291C77.022 28.5291 78.037 27.3391 78.037 25.7291C78.037 24.1191 77.022 22.9291 75.587 22.9291ZM65.087 25.7291C65.087 19.8491 68.167 15.9291 72.787 15.9291C74.782 15.9291 76.462 16.8041 77.687 18.3091V8.5791H85.737V34.8291H77.687V33.2191C76.497 34.6891 74.817 35.5291 72.787 35.5291C68.167 35.5291 65.087 31.6091 65.087 25.7291ZM97.3526 34.8291H89.3026V16.6291H97.0026V18.9741C98.0526 16.9791 100.223 15.9291 102.463 15.9291C104.808 15.9291 106.628 17.0141 107.643 18.8341C108.658 17.0141 111.283 15.9291 113.558 15.9291C117.513 15.9291 120.103 18.5891 120.103 22.5791V34.8291H112.053V25.0291C112.053 23.9441 111.458 23.0341 110.268 22.9291C109.183 22.9291 108.553 23.7691 108.553 25.0291V34.8291H100.503V25.0291C100.503 23.7691 99.8726 22.9291 98.8926 22.9291C97.9126 22.9291 97.3526 23.7691 97.3526 25.0291V34.8291ZM141.196 28.4941C141.196 32.7291 137.276 35.7041 131.396 35.7041C126.286 35.7041 122.611 32.8691 122.611 28.9491H128.946C128.946 30.0341 130.031 30.8041 131.571 30.8041C132.656 30.8041 133.496 30.2791 133.496 29.5441C133.496 28.7741 132.831 28.3541 129.996 28.2141C126.251 28.0391 122.646 27.1991 122.646 22.5791C122.646 18.6241 126.321 15.7541 131.396 15.7541C136.541 15.7541 140.321 18.4491 140.321 22.1941H133.636C133.636 21.2841 132.656 20.6541 131.431 20.6541C130.381 20.6541 129.646 21.1091 129.646 21.7391C129.646 22.7541 131.641 22.9291 132.096 22.9641C136.191 23.3141 141.196 24.0491 141.196 28.4941ZM143.647 8.5791H151.697V34.8291H143.647V8.5791Z" fill="#11417F"/>
</svg>
