<svg id="Component_5_1" data-name="Component 5 – 1" xmlns="http://www.w3.org/2000/svg" xmlns:xlink="http://www.w3.org/1999/xlink" width="366.568" height="104.963" viewBox="0 0 366.568 104.963">
  <defs>
    <clipPath id="clip-path">
      <rect id="Rectangle_670" data-name="Rectangle 670" width="366.568" height="104.963" fill="none"/>
    </clipPath>
  </defs>
  <g id="Group_3506" data-name="Group 3506">
    <g id="Group_3505" data-name="Group 3505" clip-path="url(#clip-path)">
      <path id="Path_2548" data-name="Path 2548" d="M86.058,22.2a17.367,17.367,0,0,1,13.861,6.658V3.3H117.2v67.15H99.919v-4.86a16.99,16.99,0,0,1-13.861,6.66c-12.333,0-20.794-10.171-20.794-25.024S73.725,22.2,86.058,22.2M82.635,47.222c0,5.67,3.78,9.721,9,9.721s9-4.138,9-9.721c0-5.67-3.78-9.811-9-9.811-5.308,0-9,4.14-9,9.811" transform="translate(102.57 5.179)" fill="#fff"/>
      <path id="Path_2549" data-name="Path 2549" d="M87,58.895V12.446h16.654v5.763c2.793-4.953,8.1-7.563,13.774-7.563,6.3,0,11.431,2.973,14.041,7.831,2.79-4.858,9.181-7.831,15.3-7.831,10.353,0,17.284,7.291,17.284,17.914V58.895H146.68V33.15c0-4.05-2.34-7.2-6.39-7.381-3.96,0-6.483,3.06-6.483,7.381V58.895H116.523V33.15c0-4.413-2.43-7.381-6.028-7.381-3.783,0-6.123,2.968-6.123,7.381V58.895Z" transform="translate(136.727 16.73)" fill="#fff"/>
      <path id="Path_2550" data-name="Path 2550" d="M139.482,61.275c-12.783,0-22.054-7.291-21.964-17.374h13.954c0,3.6,3.51,6.213,8.371,6.213,3.873,0,6.66-1.89,6.66-4.323,0-2.88-3.42-3.96-9.811-4.408-9.993-.813-18.9-2.7-18.9-14.314,0-9.633,9-16.564,21.154-16.564,12.874,0,22.234,6.84,22.234,16.294L146.5,26.71c-.09-2.883-3.24-5.04-7.471-5.04-3.42,0-6.033,1.71-6.033,3.96,0,2.79,4.683,3.42,7.743,3.96,9.991.99,22.324,2.88,22.324,14.044,0,10.261-9.541,17.641-23.584,17.641" transform="translate(184.691 16.51)" fill="#fff"/>
      <rect id="Rectangle_669" data-name="Rectangle 669" width="17.284" height="67.15" transform="translate(349.284 8.476)" fill="#fff"/>
    </g>
  </g>
  <rect id="Rectangle_671" data-name="Rectangle 671" width="2.572" height="72.005" transform="translate(156.876 16.479)" fill="#fff"/>
  <g id="Group_3508" data-name="Group 3508">
    <g id="Group_3507" data-name="Group 3507" clip-path="url(#clip-path)">
      <path id="Path_2551" data-name="Path 2551" d="M106.893,39.086a15.43,15.43,0,0,1,0,26.788l-64.8,37.052A15.429,15.429,0,0,1,19,89.531V15.43a15.43,15.43,0,0,1,23.088-13.4Z" transform="translate(29.861 -0.001)" fill="#fff"/>
      <path id="Path_2552" data-name="Path 2552" d="M87.893,39.086a15.43,15.43,0,0,1,0,26.788l-64.8,37.052A15.429,15.429,0,0,1,0,89.531V15.43a15.43,15.43,0,0,1,23.088-13.4Z" transform="translate(0 -0.001)" fill="#27bdf3"/>
    </g>
  </g>
</svg>
